<svg width="24" height="24" viewBox="0 0 24 24" fill="none" xmlns="http://www.w3.org/2000/svg">
    <path d="M6.5 3C6.10218 3 5.72076 3.15815 5.43945 3.43945C5.15815 3.72076 5 4.10218 5 4.5V16.3379C5.46445 16.1176 5.97614 16 6.5 16H19V3H6.5ZM11.293 6.29297C11.6835 5.90244 12.3165 5.90244 12.707 6.29297L15.707 9.29297C16.0976 9.68349 16.0976 10.3165 15.707 10.707L12.707 13.707C12.3165 14.0976 11.6835 14.0976 11.293 13.707C10.9024 13.3165 10.9024 12.6835 11.293 12.293L12.5859 11H9C8.44772 11 8 10.5523 8 10C8 9.44772 8.44772 9 9 9H12.5859L11.293 7.70703C10.9024 7.31651 10.9024 6.68349 11.293 6.29297ZM5 19.5C5 19.8978 5.15815 20.2792 5.43945 20.5605C5.72076 20.8419 6.10218 21 6.5 21H19V18H6.5C6.10218 18 5.72076 18.1581 5.43945 18.4395C5.15815 18.7208 5 19.1022 5 19.5ZM21 21C21 21.5304 20.7891 22.039 20.4141 22.4141C20.039 22.7891 19.5304 23 19 23H6.5C5.57174 23 4.68177 22.631 4.02539 21.9746C3.36901 21.3182 3 20.4283 3 19.5V4.5C3 3.57174 3.36901 2.68177 4.02539 2.02539C4.68177 1.36901 5.57174 1 6.5 1H19C19.5304 1 20.039 1.21086 20.4141 1.58594C20.7891 1.96101 21 2.46957 21 3V21Z" fill="black"/>
</svg>
